# xmcd
#
# Track frame offsets:
#	150
#	52562
#	89106
#	119065
#	164412
#
# Disc length: 2536 seconds
#
# Revision: 1
# Processed by: cddbd v1.5.2PL0 Copyright (c) Steve Scherf et al.
# Submitted via: audiograbber 1.83.01
#
DISCID=3e09e605
DTITLE=Grateful Dead - 84-11-02 Berkeley Community Theatre, Berkeley CA
DYEAR=1900
DGENRE=
TTITLE0=Space
TTITLE1=Playing In The Band
TTITLE2=Bertha
TTITLE3=Good Lovin
TTITLE4=Casey Jones
EXTD=
EXTT0=
EXTT1=
EXTT2=
EXTT3=
EXTT4=
PLAYORDER=
